<?xml version="1.0" encoding="UTF-8"?>
<!DOCTYPE svg PUBLIC "-//W3C//DTD SVG 1.1//EN" "http://www.w3.org/Graphics/SVG/1.1/DTD/svg11.dtd">
<!-- Creator: CorelDRAW 2019 (64-Bit) -->
<svg xmlns="http://www.w3.org/2000/svg" xml:space="preserve" width="34px" height="34px" version="1.1" style="shape-rendering:geometricPrecision; text-rendering:geometricPrecision; image-rendering:optimizeQuality; fill-rule:evenodd; clip-rule:evenodd"
viewBox="0 0 0.94 0.94"
 xmlns:xlink="http://www.w3.org/1999/xlink">
 <defs>
  <style type="text/css">
   <![CDATA[
    .fil0 {fill:#E6E7E8}
    .fil2 {fill:#FFF212}
    .fil1 {fill:#00AFEF}
    .fil4 {fill:#030303}
    .fil5 {fill:#060606}
    .fil33 {fill:#0A0A0A}
    .fil7 {fill:#0D0D0D}
    .fil66 {fill:#0F0F0F}
    .fil52 {fill:#101010}
    .fil11 {fill:#141414}
    .fil15 {fill:#171717}
    .fil20 {fill:#1A1A1A}
    .fil43 {fill:#1C1C1C}
    .fil36 {fill:#212121}
    .fil69 {fill:#232323}
    .fil16 {fill:#242424}
    .fil8 {fill:#252525}
    .fil17 {fill:#2C2C2C}
    .fil59 {fill:#363636}
    .fil46 {fill:#3A3A3A}
    .fil62 {fill:#3B3B3B}
    .fil45 {fill:#3E3E3E}
    .fil27 {fill:#424242}
    .fil61 {fill:#454545}
    .fil49 {fill:#464646}
    .fil63 {fill:#474747}
    .fil70 {fill:#535353}
    .fil14 {fill:#545454}
    .fil39 {fill:#565656}
    .fil53 {fill:#595959}
    .fil41 {fill:#5A5A5A}
    .fil57 {fill:#5B5B5B}
    .fil65 {fill:#5C5C5C}
    .fil19 {fill:#5D5D5D}
    .fil68 {fill:#5F5F5F}
    .fil13 {fill:#686868}
    .fil50 {fill:#6B6B6B}
    .fil51 {fill:#6C6C6C}
    .fil37 {fill:#6D6D6D}
    .fil31 {fill:#6F6F6F}
    .fil25 {fill:#707070}
    .fil60 {fill:#727272}
    .fil40 {fill:#737373}
    .fil48 {fill:#747474}
    .fil23 {fill:#777777}
    .fil22 {fill:#787878}
    .fil29 {fill:#797979}
    .fil44 {fill:#7A7A7A}
    .fil28 {fill:#7F7F7F}
    .fil56 {fill:#818181}
    .fil35 {fill:#909090}
    .fil26 {fill:#9B9B9B}
    .fil34 {fill:#9C9C9C}
    .fil58 {fill:#9E9E9E}
    .fil21 {fill:#A0A0A0}
    .fil24 {fill:#A4A4A4}
    .fil64 {fill:#A5A5A5}
    .fil38 {fill:#ABABAB}
    .fil32 {fill:#B5B5B5}
    .fil18 {fill:#B7B7B7}
    .fil10 {fill:#BABABA}
    .fil30 {fill:#BCBCBC}
    .fil67 {fill:silver}
    .fil6 {fill:#C2C2C2}
    .fil12 {fill:#C7C7C7}
    .fil54 {fill:#CFCFCF}
    .fil71 {fill:#D4D4D4}
    .fil42 {fill:#E4E4E4}
    .fil55 {fill:#E7E7E7}
    .fil9 {fill:#E9E9E9}
    .fil47 {fill:whitesmoke}
    .fil3 {fill:#3A3A3A;fill-rule:nonzero}
   ]]>
  </style>
 </defs>
 <g id="Capa_x0020_1">
  <metadata id="CorelCorpID_0Corel-Layer"/>
  <g id="_2827931756576">
   <g>
    <path class="fil0" d="M0.47 0l0.23 0.12 0.24 0.12 0 0.23 0 0.23 -0.24 0.12 -0.23 0.12 -0.23 -0.12 -0.24 -0.12 0 -0.02 0.05 0.02 0.09 0.05 -0.07 -0.07 -0.07 -0.06 0 -0.07 0.05 0.03 -0.05 -0.05 0 -0.06 0 -0.04 0.09 0.05 -0.07 -0.07 -0.02 -0.02 0 -0.15 0.12 -0.06 0.09 0.04 -0.06 -0.06 0.09 -0.04 0.03 -0.02 0 0 0.1 0.05 -0.07 -0.06 0.12 -0.06 0.04 0.02 0.09 0.05 -0.07 -0.07 -0.02 -0.02 0.01 -0.01zm0 0.1l0.18 0.1 0.18 0.09 0 0.02 0.05 0.05 -0.05 -0.02 0 0.13 0 0.14 0.02 0.02 0.07 0.07 -0.09 -0.05 0 0 0 0 -0.02 0.01 0.05 0.04 -0.06 -0.03 -0.01 0 -0.14 0.07 -0.16 0.08 0.02 0.01 0.05 0.05 -0.06 -0.03 -0.07 -0.03 0 -0.01 -0.14 -0.07 -0.18 -0.09 0 -0.18 0 -0.18 0.18 -0.09 0.18 -0.1z"/>
    <polygon class="fil1" points="0.47,0.94 0.47,0.94 0.24,0.82 0,0.7 0,0.68 0.05,0.7 0.14,0.75 0.07,0.68 0,0.62 0,0.6 0.11,0.65 0.11,0.65 0.29,0.74 0.43,0.81 0.43,0.82 0.47,0.84 "/>
    <polygon class="fil2" points="0.94,0.34 0.94,0.34 0.7,0.22 0.47,0.11 0.47,0.05 0.55,0.1 0.48,0.03 0.47,0.02 0.47,0 0.57,0.05 0.57,0.05 0.75,0.14 0.94,0.24 0.94,0.24 0.94,0.24 "/>
    <path class="fil1" d="M0 0.34l0 0 0.23 -0.12 0.24 -0.11 0 -0.06 -0.01 0 -0.04 -0.02 -0.05 0.02 0 0 -0.07 0.04 0.07 0.06 -0.1 -0.05 -0.09 0.05 -0.03 0.01 0.06 0.06 -0.09 -0.04 -0.12 0.06 0 0 0 0 0 0.1zm0.47 -0.32l0 -0.02 -0.01 0.01 0.01 0.01z"/>
    <polygon class="fil2" points="0.47,0.94 0.47,0.94 0.7,0.82 0.94,0.7 0.94,0.6 0.86,0.64 0.92,0.7 0.83,0.65 0.83,0.65 0.82,0.66 0.86,0.7 0.8,0.67 0.8,0.67 0.65,0.74 0.5,0.82 0.51,0.83 0.56,0.88 0.5,0.85 0.47,0.83 "/>
    <polygon class="fil1" points="0.94,0.34 0.94,0.34 0.93,0.46 0.94,0.6 0.86,0.64 0.85,0.63 0.83,0.61 0.83,0.57 0.83,0.57 0.83,0.47 0.83,0.34 0.88,0.36 0.83,0.31 0.83,0.29 0.85,0.3 0.87,0.31 "/>
    <polygon class="fil2" points="0,0.34 0,0.34 0,0.39 0.02,0.41 0.09,0.48 0,0.43 0,0.43 0,0.47 0,0.53 0.05,0.58 0,0.55 0,0.6 0.11,0.65 0.1,0.57 0.1,0.57 0.11,0.47 0.1,0.29 0.09,0.3 0.06,0.31 "/>
   </g>
   <path class="fil3" d="M0.1 0.38c0,0 0,0 0,0 0,0 0,0 0,0 0,0 0,0 0,0 0,0 0,0 0,0z"/>
   <path class="fil3" d="M0.1 0.39c0,0 0,0 0,0 0,0 -0.01,0 -0.01,0 0,0 0,0 0,0 0,0 0,0 0.01,0z"/>
   <path class="fil3" d="M0.1 0.39c0,0 0,0 0,-0.01 0,0 -0.01,0 -0.01,0 0,0 0,0 0,0.01 0,0 0,0 0.01,0z"/>
   <g>
    <path class="fil4" d="M0.43 0.52c-0.01,0 -0.01,0 -0.01,0.01 0.01,-0.01 0,0 0.01,-0.01zm-0.04 -0.03l0 0c0,-0.01 0,0 -0.01,-0.01 0,0.01 0,0.01 0,0.01l0 0 0 0.01c0.01,0 0.01,0 0.01,0l-0.01 0.01c0.01,0 0.01,0 0.01,-0.01 0,-0.01 0,-0.01 0,-0.01zm-0.01 -0.01c0,0 0,0 -0.01,0.01 0,0.01 0,0 0,0.01 0.01,0 0,0 0.01,-0.01 0,0 0,0 0,0l0 -0.01zm0.01 0c0,0 0,0 0,0 0.01,0.01 0,0 0.01,0 0,0 0,0 -0.01,0zm0.03 0c0.01,0 0.01,-0.01 0.02,0 0,0 0,0 0,0l0 -0.01c0,0 0,0.01 0,0 0,0 0,0 -0.01,0l0 0 -0.01 0.01c0,-0.01 0,-0.01 0,-0.02 -0.01,0.01 -0.02,0.01 -0.02,0.02 0,0 0,0 0,0l0.01 0c0.01,0 0,0 0.01,0l0 0zm0.04 -0.04l0 0.01 0 0c0,0 0,0 -0.01,0 0,0 0,0 0,0 0,0 0,0 0,0l0.01 0.02c0.01,0 -0.02,0.01 0.01,0 0,0.01 0.01,0.01 0,0.02l0 -0.01c0,0 0,0 0,0 0.01,0 0,0 0.01,0.01 0,0 0,0.01 0,0.02 -0.01,0.01 -0.01,0.01 -0.01,0.02 0,0.01 0,0 -0.01,0.02 0,0.01 0,0.06 0,0.07 0,0.02 0,0.03 0.01,0.04 -0.01,0 -0.01,0.01 -0.01,-0.01 -0.01,-0.01 -0.01,-0.09 -0.01,-0.1 0,-0.02 0.02,-0.02 0,-0.04 0,0.01 0.01,0.01 -0.01,0.02 -0.01,0 -0.02,0 -0.02,0.01 -0.01,0.01 -0.02,0.03 -0.06,0.07 -0.01,0 -0.01,0.01 -0.02,0.01 -0.01,0 -0.01,0 -0.02,-0.01l-0.02 0.04c0,-0.01 0.02,-0.03 0.01,-0.05l-0.01 -0.02c0,-0.01 0,-0.01 0,-0.02l0.01 0c0,0.01 0,0 0,0.01 0,0 0,-0.01 0,-0.01 -0.01,-0.01 0,0 0,-0.01l0 0c0,0 -0.01,0 0.01,0l0.01 -0.01c0,-0.01 0,-0.01 0,-0.01 0.02,0 -0.01,-0.01 0.01,0 0.01,0 0,0 0,0 0,0 0,0 0.01,0 0,-0.01 0,-0.01 0,-0.01 -0.01,-0.01 -0.01,0 -0.02,-0.02l0.02 0c-0.01,0 0,0 -0.01,0 0,-0.01 0,0 0,-0.01 0.01,0 0,0.01 0.01,0 0,0 0,0 0,0 0.01,0 0.01,-0.01 0.01,0 -0.01,0.01 0,0 0,0.01 0,0 0,-0.01 0,-0.01 0.01,-0.01 0,0 0,-0.01l-0.01 0c0,-0.01 0,0 -0.01,-0.02l0.01 0c0.01,0 0,0 0.01,0.01l0 0 0.01 0c0,0 0,0 0.01,0 0,0 -0.01,0 0,0.01 0.01,-0.01 0,0 0.01,-0.01 0,0 0,-0.01 0,-0.01 0.01,0.01 0,0.01 0.01,0l0.01 0c0,-0.01 0,0 -0.01,0 0,-0.01 0,-0.01 0,-0.01l0.03 0c0,0 0,0.01 0,0.01 0.01,0 0.03,-0.03 0.03,-0.03l0 0.01z"/>
    <path class="fil5" d="M0.55 0.5c0,-0.02 -0.01,-0.03 -0.01,-0.04 -0.01,0.01 -0.01,0.01 -0.01,0.02 0,0.01 0,0.02 0,0.02l0.02 0zm-0.04 -0.06l0 0c-0.01,0 0,0 0,0zm-0.04 0c0,0 0,0 0,0l0.01 0.01c-0.01,-0.02 0,-0.01 -0.01,-0.01zm0.15 -0.03c0.01,0 0.02,0 0.03,0 -0.01,0 -0.02,0 -0.03,0 -0.02,0 -0.01,0 -0.01,0l0.01 0zm-0.11 0.01c0.01,0.01 0.01,0.01 0.02,0.01 0,-0.01 0,0 0,-0.01 0,0 0,0 -0.01,0 0.01,0 0.01,0 0.01,0l0.01 0 0 -0.01 0 0.01 0.03 0c-0.01,0 0,0 -0.01,0 -0.01,0 -0.01,0 -0.01,0 0,-0.02 0,-0.01 0,-0.02l0 0 0.01 0.01c0,0 0,0 0,0 0,0 0,0 0,0l0 -0.01c0.01,0.01 0,0.01 0.02,0.01 0,0 0,0 0,-0.01l0.01 0c0.01,0.01 0,0 0,0.01 0.08,-0.01 0.03,-0.01 0.1,0 0.04,0.01 0.08,0 0.1,0.02 -0.02,0 -0.02,-0.01 -0.05,-0.01 0,0.01 0.01,0.01 0.01,0.02 -0.02,-0.01 -0.02,-0.02 -0.06,-0.02 -0.03,0.01 -0.04,-0.01 -0.07,-0.01 0,0.01 0,0.01 0.01,0.02 0.01,0.01 0.01,0.01 0.01,0.02 -0.02,0 -0.04,0.01 -0.06,0.01 -0.03,0 -0.03,-0.01 -0.03,-0.01l0 0.01 0 0.01 0.01 0.02c0.03,0 0.04,0.01 0.06,0.01 0.02,0.01 0.03,0.01 0.05,0.02 -0.02,-0.01 -0.02,-0.01 -0.03,-0.01 0,0 -0.02,0 -0.02,0 -0.04,-0.01 -0.03,-0.02 -0.06,-0.01 0.01,0.02 0.01,0.02 0.01,0.04 0.01,0.02 0.01,0.01 0.03,0.01 -0.02,0 -0.02,0.01 -0.03,0 0,-0.01 0,-0.02 -0.01,-0.04 0,-0.01 0,0 0,0 -0.01,0 -0.01,0 -0.01,0 -0.03,0.01 -0.04,0.01 -0.04,-0.01l-0.02 0 0 -0.02c0,0 0,0 -0.01,0.01 -0.01,-0.01 0,-0.01 -0.01,-0.01 0,0 0,0 0,0l0 0.01c0.01,-0.01 0,-0.01 0,-0.02 -0.03,0.01 0,0 -0.01,0 0,0 0,0 0,-0.01l0 -0.01 0 0 0.01 -0.01 0 0c0,0 0.01,0 -0.01,0l0.01 -0.01 0 0c0.02,0 0.02,0 0.02,0.01 0,-0.01 0,-0.02 0,-0.02l0.01 0.01 0 -0.03 0.01 0 0.01 0.01c-0.01,0.01 -0.01,0 -0.01,0.01 0,0.01 0,0 0,0z"/>
    <path class="fil6" d="M0.43 0.42l0 0.01c0,0 0,0 0,0l-0.01 0.01c0,0 0,0 0,0l0.01 0c0.01,-0.01 0,0 0,-0.01 0.01,0 0.01,0 0.01,0.01 0.01,-0.01 0,0 0,-0.01 0.01,0 0.01,0 0.01,0l0.01 0c0,0 -0.02,0.03 -0.03,0.03 0,0 0,-0.01 0,-0.01l-0.03 0c0,-0.01 0,0 0,-0.01 0,0 -0.01,0 -0.01,0 0,0 0,0 0,0 0.01,-0.01 0,0 0.01,-0.01l0.01 0c0.01,0 0.01,0.01 0,0 0.01,-0.01 0.01,0 0.01,-0.01l0 0c0.01,0 0,0 0.01,0z"/>
    <path class="fil7" d="M0.34 0.53c0,0 0.01,0 0,0 -0.02,-0.01 0.01,0 -0.01,0 0,0 0,0 0,0.01l-0.01 0.01c-0.02,0 -0.01,0 -0.01,0l0 -0.01c0,0 0,0 0,0 0,0 0,0 0,0 0,0 0,0 0,-0.01 0,0 0,0 0,0l0.01 0 -0.01 -0.01 0.01 0c0,0 0,0 0,0l0 -0.01 0.01 0 0 0.01c0.01,-0.01 0,-0.01 0.01,-0.01 0,0.01 0,0.01 0,0.01 0,0.01 0,0.01 0,0.01z"/>
    <path class="fil8" d="M0.3 0.5c0,0.01 -0.01,-0.01 0,0 0,-0.01 0,-0.01 0,-0.01 -0.01,0 -0.01,0 0,0.01zm-0.03 0.02l0.01 0c0,-0.01 -0.01,0 0,-0.01 -0.01,0 0,0 0,-0.01 0,0 0,0 0,0 0.03,-0.02 0.02,-0.01 0.03,-0.02l0 -0.01c0.01,0 0.01,0 0.01,0 0,0.01 -0.01,0.01 -0.01,0.03 0,0 -0.01,0 -0.01,0 0,0 0,0 0,0l0 0c0,0.01 0,0.01 -0.01,0.01 -0.01,0 0,0 0,0 -0.01,0.01 -0.01,0.01 -0.02,0.02l0 -0.01z"/>
    <path class="fil9" d="M0.55 0.5l-0.02 0c0,0 0,-0.01 0,-0.02 0,-0.01 0,-0.01 0.01,-0.02 0,0.01 0.01,0.02 0.01,0.04z"/>
    <path class="fil10" d="M0.49 0.42c0,-0.01 0,0 -0.01,0l0.01 0.01c0,-0.01 0,-0.01 0,-0.01zm0 0c0,0 0,0.01 0,0.02 0,-0.01 0,-0.01 -0.02,-0.01l0 0 -0.01 0.01 0 -0.01c0,0 0.01,-0.01 0.01,-0.01 0,0 0,0 0,0 0,0 0,0 0,0 0,0 0.01,0.01 0,-0.01 0.02,0.01 0.02,0 0.02,0 0,0 0,0 0.01,0l-0.01 0.01z"/>
    <path class="fil11" d="M0.49 0.41c0,0 0,0.01 -0.02,0 0.01,0.02 0,0.01 0,0.01 0,0 0,0 0,0 0,0 0,0 0,0 0,0 -0.01,0.01 -0.01,0.01l0 0 -0.01 0c0,0 0,0 -0.01,0 0,0 0,0 0,-0.01l0.02 0c0,0 0,0 0,-0.01 0,0 0,0 0,0l0.01 0c0.01,-0.01 0,0 0.02,0z"/>
    <path class="fil12" d="M0.54 0.4l0.01 0c0,0.01 0,0 0,0.02 0,0 0,0 0.01,0 0.01,0 0,0 0.01,0l-0.03 0 0 -0.01 -0.01 0 0 0c0,-0.02 -0.01,-0.02 0,-0.01l0 0 0.01 0z"/>
    <path class="fil13" d="M0.34 0.5c0.01,0 0,0 0.01,0l-0.02 0c0.01,0.02 0.01,0.01 0.02,0.02 0,0 0,0 0,0.01 -0.01,0 -0.01,0 -0.01,0 0,0 0,0 0,-0.01 0,0 0,0 0,-0.01 -0.01,0 0,0 -0.01,0.01l0 -0.01 0 -0.01c0.02,-0.01 0,-0.01 0.01,0z"/>
    <path class="fil14" d="M0.58 0.4c0,0.01 0,0.01 0,0.01 -0.02,0 -0.01,0 -0.02,-0.01 0,0 0,0 0.01,0 0,-0.01 0,0 0,0 0.02,0 0.01,0 0.01,0z"/>
    <path class="fil15" d="M0.53 0.4c-0.01,-0.01 0,-0.01 0,0.01 -0.01,0 0,-0.01 -0.01,0 0,-0.02 0,-0.01 -0.01,-0.02 0,0 0,0 0,0 0.01,0 0,0 0.01,0 0,0 0,0 0,-0.01 0.01,0.01 0.01,0.01 0.01,0.01 0,0 0,0 0,0l0 0.01z"/>
    <path class="fil16" d="M0.24 0.56c-0.04,0.02 -0.04,0.01 -0.05,0 0.01,-0.01 0.01,0 0.01,0.01 0.01,0 0.01,0 0.02,0 0.01,-0.01 0.01,-0.01 0.02,-0.01z"/>
    <path class="fil17" d="M0.29 0.67c-0.02,0.02 -0.02,0 -0.04,0.01 0.01,-0.01 0.01,0 0.02,-0.01 0.02,0 0.02,-0.01 0.03,-0.02l-0.01 0.02z"/>
    <path class="fil18" d="M0.43 0.47l-0.01 0.01 0 0c-0.01,0 0,0 -0.01,0l-0.01 0c0,0 0,0 0,0 0,-0.01 0.01,-0.01 0.02,-0.02 0,0.01 0,0.01 0,0.02l0.01 -0.01z"/>
    <path class="fil19" d="M0.31 0.47l0 0.01c0,0 0,0 0,0 -0.01,0 -0.01,0 -0.01,0 0,0 0,0 0.01,-0.01 0,0 0,0 0,0l0.01 -0.01c0,0 0,0 0,0l0 0.01c-0.01,0.01 0,0 -0.01,0z"/>
    <path class="fil20" d="M0.26 0.53c0,0.01 -0.01,0.02 -0.02,0.03l0.02 -0.03c0,0 0,0 0,0z"/>
    <path class="fil21" d="M0.62 0.41l-0.01 0c0,0 -0.01,0 0.01,0 0.01,0 0.02,0 0.03,0 -0.01,0 -0.02,0 -0.03,0z"/>
    <path class="fil22" d="M0.27 0.52l-0.01 -0.01c0.01,0 0.01,0 0.02,-0.01 0,0.01 -0.01,0.01 0,0.01 -0.01,0.01 0,0 0,0.01l-0.01 0z"/>
    <path class="fil23" d="M0.38 0.47c-0.01,0 -0.01,0 -0.01,0l-0.01 0 0 0c0.01,-0.01 0,-0.01 0.01,-0.01l0.01 0.01z"/>
    <path class="fil24" d="M0.56 0.39c0.01,-0.01 0,0 0.02,-0.01 0,0.01 0,0.01 0,0.01 0,0 0,0 0,0l-0.02 0z"/>
    <path class="fil21" d="M0.43 0.33c-0.02,0 -0.01,0 -0.02,0 -0.01,-0.01 0,0 0,-0.01 0.01,0 0.01,0 0.02,0.01z"/>
    <path class="fil25" d="M0.44 0.47l0 0.01c0,0 0,0 0,0 -0.01,-0.01 -0.01,0 -0.02,0l0.01 -0.01 0 0c0.01,0 0.01,0 0.01,0 0,0.01 0,0 0,0z"/>
    <path class="fil26" d="M0.35 0.49c0,-0.01 0,-0.01 0,-0.01l0.01 0c0,0.01 0.01,0 0,0.01 0,0 0,0.01 0,0.01 0,-0.01 -0.01,0 0,-0.01 0,-0.01 0,0 -0.01,0z"/>
    <path class="fil27" d="M0.41 0.43c0,0 -0.01,0 -0.01,0 0,-0.01 0.01,-0.01 0.02,-0.01 0,0.01 0,0 -0.01,0.01 0.01,0.01 0.01,0 0,0z"/>
    <path class="fil28" d="M0.38 0.49c0,0 0,0 0,0 -0.01,0.01 0,0.01 -0.01,0.01 0,-0.01 0,0 0,-0.01 0.01,-0.01 0.01,-0.01 0.01,-0.01l0 0.01z"/>
    <path class="fil29" d="M0.36 0.42c0,0.01 0.01,0.02 0.01,0.02l-0.02 -0.01c0,0 0,0 0,0 0.01,-0.01 0,0 0.01,-0.01z"/>
    <path class="fil30" d="M0.46 0.45l0 0.01c0,0.01 0,0.01 0,0.01l-0.01 -0.02c0,0 0,0 0,0 0,0 0,0 0,0 0.01,0 0.01,0 0.01,0z"/>
    <path class="fil31" d="M0.54 0.41l0 0.01 -0.01 0c0,0 0,0 -0.01,0l0 -0.01c0.01,-0.01 0,0 0.01,0l0 0 0.01 0z"/>
    <path class="fil32" d="M0.38 0.5l0.01 0 0 -0.01c0,0 0,0 0,0.01 0,0.01 0,0.01 -0.01,0.01l0.01 -0.01c0,0 0,0 -0.01,0z"/>
    <path class="fil33" d="M0.4 0.43c-0.01,0.01 0,0 -0.01,0.01 -0.01,-0.01 -0.01,0 0,-0.01 0.01,0 0,0 0.01,0z"/>
    <path class="fil34" d="M0.42 0.38c-0.01,-0.01 0,0 -0.01,-0.01l0 0c0,0 0.01,0 0.01,0 0,0 0,0 0,0 0,0.02 0.01,0 0,0.01z"/>
    <path class="fil35" d="M0.47 0.39l-0.01 0c0,-0.01 0.01,0 0,-0.01 -0.01,-0.01 0,0.01 -0.01,0l0.01 -0.01c0.01,0.02 0.01,0.01 0.01,0.02 0,0 0,0 0,0z"/>
    <path class="fil22" d="M0.3 0.56l0.01 -0.01c0,0.01 -0.01,0 0,0.01 0,0 0,0.01 0,0.01 0,-0.01 0,0 0,-0.01l-0.01 0z"/>
    <path class="fil36" d="M0.3 0.53c-0.01,0 0,0 0,0 0,-0.01 -0.01,0 0,-0.01 0,-0.01 0,0 0,-0.01 0.01,0.01 0.01,0.01 0,0.02z"/>
    <path class="fil37" d="M0.47 0.43l-0.01 0.01c0.02,0 0.01,0 0.01,0l0 0 -0.01 0 0 -0.01 0 0 0 0.01 0.01 -0.01z"/>
    <path class="fil26" d="M0.52 0.37c0,0 0,-0.01 -0.01,-0.01 0.02,0 0.01,0 0.02,0.01 0,0 0,0 -0.01,0z"/>
    <path class="fil23" d="M0.56 0.51c0,0.01 0,0 0,0.01 0,0 0,0 0,0 -0.01,-0.01 0,0 -0.01,-0.01 0,0 0,0 0.01,0 0,0 0,-0.01 0,0z"/>
    <path class="fil17" d="M0.43 0.43c0,0.01 0.01,0 0,0.01l-0.01 0c0,0 0,0 0,0l0.01 -0.01c0,0 0,0 0,0l0 0z"/>
    <path class="fil38" d="M0.51 0.4l-0.01 0 0 0c0,-0.01 -0.01,0 0,-0.01l0.01 0.01z"/>
    <path class="fil39" d="M0.34 0.46l-0.01 0 0 -0.01 0.01 0c0,0.01 -0.01,0 0,0.01z"/>
    <path class="fil40" d="M0.42 0.38c0.01,0.01 0,0 0.01,0.01 0,0 -0.01,0 -0.01,0l-0.01 -0.01c0.01,0 0,0 0.01,0z"/>
    <path class="fil17" d="M0.48 0.38c0,-0.01 0,0 0,0 0,0 0.01,0 0.01,0l-0.01 0.01c0,0 0,0 0,-0.01z"/>
    <path class="fil22" d="M0.3 0.53c0,0.01 0,0 0.01,0 0,0 0,0 0,0 0,0.01 0,0.01 0,0.01 0,0 0,0 0,0 -0.01,0 -0.01,0 -0.01,-0.01 -0.01,0 0,0 0,0 0,0 -0.01,0 0,0z"/>
    <path class="fil41" d="M0.47 0.41l-0.01 0 0 -0.01c0.01,0 0.02,0 0.01,0.01z"/>
    <polygon class="fil11" points="0.54,0.4 0.53,0.4 0.53,0.4 0.54,0.4 "/>
    <path class="fil42" d="M0.4 0.48c-0.01,0 0,0.01 -0.01,0 0,0 0,0 0,0 0.01,0 0.01,0 0.01,0z"/>
    <path class="fil43" d="M0.51 0.42c0.01,-0.01 0.01,-0.01 0.01,0l-0.01 0z"/>
    <path class="fil44" d="M0.4 0.46c0,0 0,0 0,0 0,0 0,0 0,0 0.01,0 0.01,-0.01 0.01,0l-0.01 0z"/>
    <path class="fil8" d="M0.5 0.4l0 0c-0.01,0.01 0,0.01 -0.01,0 0,0 0,0 0.01,0z"/>
    <path class="fil45" d="M0.29 0.55l0.01 -0.01c0,0.01 0.01,0.01 -0.01,0.01z"/>
    <path class="fil46" d="M0.43 0.39c0.02,-0.02 0.01,-0.01 0.01,0 0,0 0,0 -0.01,0z"/>
    <polygon class="fil47" points="0.38,0.5 0.38,0.49 0.38,0.49 0.39,0.49 0.39,0.5 "/>
    <path class="fil39" d="M0.47 0.36c0.01,-0.01 0,0 0.01,0l-0.02 0c0,0 0,0 0.01,0z"/>
    <path class="fil7" d="M0.28 0.54c0,-0.01 0,-0.01 0,-0.01l0.01 0 -0.01 0.01z"/>
    <path class="fil48" d="M0.47 0.44c0.01,0 0,-0.01 0.01,0.01l-0.01 -0.01c0,0 0,0 0,0z"/>
    <path class="fil49" d="M0.38 0.42c0,0 0,0 0.01,0 0,0 0.01,0.01 -0.01,0z"/>
    <path class="fil50" d="M0.46 0.4c0,-0.01 0,-0.01 0,-0.01 0.01,0 0.01,0 0.01,0 -0.01,0.01 0,0.01 -0.01,0.01z"/>
    <polygon class="fil51" points="0.55,0.47 0.55,0.46 0.56,0.46 "/>
    <path class="fil52" d="M0.43 0.41c0.01,-0.01 0.01,0 0.01,0 0,0 0,0 -0.01,0z"/>
    <path class="fil36" d="M0.34 0.46c-0.02,0.01 -0.01,0.01 -0.01,0 0,0 0,0 0,0 0.01,0 0,0 0.01,0z"/>
    <path class="fil53" d="M0.39 0.37c0,0.01 0,0.01 0,0 -0.01,0 0,-0.01 0,0z"/>
    <path class="fil43" d="M0.38 0.36c0,0 0,0 0,0 0.01,0 0.01,-0.01 0,0z"/>
    <path class="fil54" d="M0.43 0.52c-0.01,0.01 0,0 -0.01,0.01 0,-0.01 0,-0.01 0.01,-0.01z"/>
    <path class="fil55" d="M0.3 0.5c-0.01,-0.01 0,0.01 0,0 -0.01,-0.01 -0.01,-0.01 0,-0.01 0,0 0,0 0,0.01z"/>
    <path class="fil8" d="M0.43 0.42c-0.01,0 0,0 -0.01,0l0.01 0 0 0z"/>
    <path class="fil56" d="M0.31 0.52l0.01 -0.01 0 0.01c0,0 0,0 0,0l-0.01 0z"/>
    <path class="fil44" d="M0.44 0.33c0.01,0 0,0 0,0 0,0 0,-0.01 0,0z"/>
    <polygon class="fil54" points="0.46,0.45 0.46,0.44 0.47,0.44 "/>
    <path class="fil52" d="M0.38 0.45c-0.01,0.01 0,0 -0.01,0.01 0.01,-0.01 0,-0.01 0.01,-0.01z"/>
    <path class="fil36" d="M0.35 0.45l-0.01 0.01c-0.01,-0.01 0,0 0,-0.01l0.01 0z"/>
    <path class="fil57" d="M0.54 0.33c0,0 0,0 0,0 0,0 0,-0.01 0,0z"/>
    <path class="fil39" d="M0.4 0.44c-0.01,0.01 0.01,0.01 -0.01,0.01 0,-0.01 0,0 0.01,-0.01z"/>
    <path class="fil27" d="M0.44 0.42c0,0 0,0 -0.01,0 0,0 0.01,-0.01 0.01,0z"/>
    <path class="fil58" d="M0.31 0.46c0,0 0,0 -0.01,0 -0.01,0 -0.01,0 -0.01,-0.01l0.02 0.01z"/>
    <path class="fil59" d="M0.35 0.46l-0.01 0c0,0 0,0 0.01,-0.01l0 0.01z"/>
    <path class="fil60" d="M0.38 0.35c0,0 0,0 0,0 0,0 0,-0.01 0,0z"/>
    <path class="fil44" d="M0.39 0.49l-0.01 0c0,0 0,0 0,-0.01 0.01,0.01 0.01,0 0.01,0.01l0 0z"/>
    <path class="fil61" d="M0.38 0.46l0 0.01c0,0 0,0 0,0 0,-0.01 0,-0.01 0,-0.01z"/>
    <path class="fil62" d="M0.33 0.47c0.01,0 0.01,0.01 0,0.01 0,0 0,-0.01 0,-0.01 0,0 -0.01,0 0,0z"/>
    <path class="fil63" d="M0.55 0.4c0,0 0,0 0.01,0 -0.01,0 0.01,0 -0.01,0z"/>
    <path class="fil64" d="M0.38 0.37c0,0 0,0 -0.01,0 0,-0.01 0.01,0 0.01,0z"/>
    <path class="fil16" d="M0.45 0.4c0.01,0.01 0,0.01 0,0.01l0 -0.01c0,0 0,0 0,0z"/>
    <path class="fil65" d="M0.41 0.41c0,0.01 0,0 0,0 0,0 0,0 0,0z"/>
    <path class="fil66" d="M0.49 0.43l-0.01 -0.01c0.01,0 0.01,-0.01 0.01,0 0,0 0,0 0,0.01z"/>
    <path class="fil67" d="M0.51 0.44c0,0 -0.01,0 0,0l0 0z"/>
    <path class="fil40" d="M0.37 0.41c0,0.01 0,0 0,0 -0.01,0.01 0,0.01 0,0 -0.01,0 0,0 0,0z"/>
    <path class="fil68" d="M0.47 0.33c0,0 0.01,0 0,0l0 0z"/>
    <path class="fil69" d="M0.34 0.48l0 0c0,0 0,0 0,0z"/>
    <path class="fil70" d="M0.45 0.35l0.01 0c-0.01,0.01 -0.01,0 -0.01,0z"/>
    <polygon class="fil71" points="0.44,0.48 0.44,0.47 "/>
   </g>
  </g>
 </g>
</svg>
